<svg width="526" height="184" viewBox="0 0 526 184" fill="none" xmlns="http://www.w3.org/2000/svg">
<g filter="url(#filter0_d_14_83)">
<path d="M42.3199 71C42.3199 43.3858 64.7057 21 92.3199 21H451C478.614 21 501 43.3858 501 71V86.6177C501 114.232 478.614 136.618 451 136.618H42.3199V71Z" fill="#F539D7"/>
<path d="M35.6872 135.196C44.5413 124.944 74.5424 94.6036 81.1762 78.8088C101.078 92.3923 134.815 118.422 110.554 113.873C86.2937 109.324 54.641 133.143 41.8472 145.621C28.1057 156.045 26.6842 145.621 35.6872 135.196Z" fill="#F539D7" stroke="#F539D7" stroke-width="10"/>
<path d="M30.958 143.069C29.6771 143.734 30.0689 143.673 30.958 143.069C31.2918 142.896 31.7391 142.674 32.3207 142.399C35.5355 140.881 38.5308 139.709 41.2118 137.287C41.7721 136.436 42.5592 135.61 43.468 134.845C45.8769 131.862 48.299 128.092 51.7087 127.118C53.19 126.694 57.5624 125.586 56.2806 126.44C55.6035 126.892 55.4158 128.021 55.0106 128.684C54.2182 129.981 52.1284 130.385 50.7774 130.801C48.6401 131.458 45.6904 132.972 43.468 134.845C42.9301 135.511 42.3928 136.137 41.8454 136.685C41.6362 136.894 41.425 137.094 41.2118 137.287C38.5308 139.709 35.5355 140.881 32.3207 142.399C31.7391 142.674 31.2918 142.896 30.958 143.069Z" fill="#F539D7"/>
<path d="M52.132 123.35C46.8584 123.35 42.4017 128.404 39.5171 132.113C37.1007 135.22 35.2876 139.009 32.4901 141.807C30.5729 143.724 28.4095 144.246 32.3207 142.399C35.7912 140.761 39.0058 139.524 41.8454 136.685C44.8446 133.685 47.5377 128.309 51.7087 127.118C53.19 126.694 57.5624 125.586 56.2806 126.44C55.6035 126.892 55.4158 128.021 55.0106 128.684C54.2182 129.981 52.1284 130.385 50.7774 130.801C47.4536 131.823 42.1651 134.917 40.7024 138.209C38.3284 143.55 36.674 146.841 32.4901 150.189C30.7345 151.593 29.7005 149.047 30.0771 147.352C30.5373 145.281 33.7563 143.474 35.3686 142.399" stroke="#F539D7" stroke-width="5" stroke-linecap="round"/>
</g>
<defs>
<filter id="filter0_d_14_83" x="-0.000610352" y="0" width="526.001" height="183.938" filterUnits="userSpaceOnUse" color-interpolation-filters="sRGB">
<feFlood flood-opacity="0" result="BackgroundImageFix"/>
<feColorMatrix in="SourceAlpha" type="matrix" values="0 0 0 0 0 0 0 0 0 0 0 0 0 0 0 0 0 0 127 0" result="hardAlpha"/>
<feOffset dy="4"/>
<feGaussianBlur stdDeviation="12.5"/>
<feComposite in2="hardAlpha" operator="out"/>
<feColorMatrix type="matrix" values="0 0 0 0 0 0 0 0 0 0 0 0 0 0 0 0 0 0 0.25 0"/>
<feBlend mode="normal" in2="BackgroundImageFix" result="effect1_dropShadow_14_83"/>
<feBlend mode="normal" in="SourceGraphic" in2="effect1_dropShadow_14_83" result="shape"/>
</filter>
</defs>
</svg>
